<svg width="21" height="21" viewBox="0 0 21 21" fill="none" xmlns="http://www.w3.org/2000/svg">
<path fill-rule="evenodd" clip-rule="evenodd" d="M10.4998 13.2409L17.3495 20.0906C17.713 20.4541 18.206 20.6583 18.72 20.6583C19.234 20.6583 19.727 20.4541 20.0904 20.0906C20.4539 19.7272 20.6581 19.2342 20.6581 18.7202C20.6581 18.2061 20.4539 17.7132 20.0904 17.3497L13.2381 10.5L20.0891 3.65029C20.269 3.47032 20.4117 3.25668 20.509 3.02157C20.6064 2.78646 20.6564 2.53448 20.6564 2.28002C20.6563 2.02557 20.6061 1.77361 20.5087 1.53855C20.4113 1.30348 20.2685 1.08991 20.0885 0.910022C19.9085 0.730136 19.6949 0.587459 19.4598 0.490137C19.2247 0.392816 18.9727 0.342756 18.7182 0.342816C18.4638 0.342876 18.2118 0.393055 17.9768 0.490487C17.7417 0.587919 17.5281 0.730697 17.3482 0.910668L10.4998 7.76038L3.65011 0.910668C3.47146 0.725535 3.25774 0.577833 3.02141 0.47618C2.78507 0.374528 2.53086 0.320961 2.2736 0.318605C2.01634 0.316249 1.76119 0.365151 1.52304 0.462458C1.28488 0.559765 1.06849 0.703528 0.886486 0.885358C0.704484 1.06719 0.560517 1.28345 0.462985 1.52151C0.365454 1.75958 0.316311 2.01468 0.318425 2.27194C0.320538 2.5292 0.373865 2.78346 0.475295 3.01989C0.576724 3.25632 0.724224 3.47019 0.909189 3.649L7.76148 10.5L0.910481 17.351C0.725516 17.5298 0.578016 17.7437 0.476587 17.9801C0.375157 18.2165 0.32183 18.4708 0.319716 18.7281C0.317603 18.9853 0.366746 19.2404 0.464277 19.4785C0.561808 19.7166 0.705775 19.9328 0.887777 20.1146C1.06978 20.2965 1.28617 20.4402 1.52433 20.5375C1.76248 20.6349 2.01764 20.6838 2.27489 20.6814C2.53215 20.679 2.78636 20.6255 3.0227 20.5238C3.25903 20.4222 3.47276 20.2745 3.6514 20.0893L10.4998 13.2409Z" fill="black"/>
</svg>
