<svg width="40" height="40" viewBox="0 0 40 40" fill="none" xmlns="http://www.w3.org/2000/svg">
<path d="M39.611 16.083H38V16H20V24H31.303C29.654 28.657 25.223 32 20 32C13.373 32 8 26.627 8 20C8 13.373 13.373 8 20 8C23.059 8 25.842 9.154 27.961 11.039L33.618 5.382C30.046 2.053 25.268 0 20 0C8.955 0 0 8.955 0 20C0 31.045 8.955 40 20 40C31.045 40 40 31.045 40 20C40 18.659 39.862 17.35 39.611 16.083Z" fill="#FFC107"/>
<path d="M2 11.0288L8.71538 16C10.5324 11.4589 14.9331 8.25274 20.0828 8.25274C23.209 8.25274 26.0531 9.4432 28.2187 11.3877L34 5.55203C30.3495 2.11786 25.4665 0 20.0828 0C12.232 0 5.42361 4.47402 2 11.0288Z" fill="#FF3D00"/>
<path d="M19.6829 40C24.8135 40 29.4753 38.0163 33 34.7904L26.8524 29.5347C24.7916 31.1191 22.2726 31.9757 19.6829 31.9729C14.5166 31.9729 10.1299 28.6447 8.47729 24L2 29.042C5.28731 35.5409 11.9632 40 19.6829 40Z" fill="#4CAF50"/>
<path d="M39.611 16.0838H38V16H20V24.073H31.303C30.5142 26.3096 29.0934 28.264 27.216 29.6948L27.219 29.6928L33.409 34.9786C32.971 35.3802 40 30.1277 40 20.0365C40 18.6833 39.862 17.3623 39.611 16.0838Z" fill="#1976D2"/>
</svg>
