<svg width="26" height="27" viewBox="0 0 26 27" fill="none" xmlns="http://www.w3.org/2000/svg">
<path fill-rule="evenodd" clip-rule="evenodd" d="M4.10531 0C3.01651 0 1.97231 0.426695 1.20242 1.18622C0.432523 1.94574 0 2.97587 0 4.05V22.95C0 24.0241 0.432523 25.0543 1.20242 25.8138C1.97231 26.5733 3.01651 27 4.10531 27H12.3159C13.4047 27 14.4489 26.5733 15.2188 25.8138C15.9887 25.0543 16.4212 24.0241 16.4212 22.95V4.05C16.4212 2.97587 15.9887 1.94574 15.2188 1.18622C14.4489 0.426695 13.4047 0 12.3159 0H4.10531ZM18.1906 7.14555C18.4472 6.89246 18.7953 6.75029 19.1581 6.75029C19.521 6.75029 19.869 6.89246 20.1256 7.14555L25.5993 12.5456C25.8559 12.7987 26 13.142 26 13.5C26 13.858 25.8559 14.2013 25.5993 14.4544L20.1256 19.8545C19.8675 20.1004 19.5218 20.2364 19.163 20.2334C18.8042 20.2303 18.461 20.0883 18.2073 19.838C17.9536 19.5877 17.8097 19.2491 17.8065 18.8951C17.8034 18.5412 17.9414 18.2002 18.1906 17.9456L21.3285 14.85H9.57906C9.21612 14.85 8.86806 14.7078 8.61142 14.4546C8.35479 14.2014 8.21062 13.858 8.21062 13.5C8.21062 13.142 8.35479 12.7986 8.61142 12.5454C8.86806 12.2922 9.21612 12.15 9.57906 12.15H21.3285L18.1906 9.05445C17.9341 8.80129 17.79 8.45797 17.79 8.1C17.79 7.74203 17.9341 7.39871 18.1906 7.14555Z" fill="white"/>
</svg>
