<svg width="31" height="41" viewBox="0 0 31 41" fill="none" xmlns="http://www.w3.org/2000/svg">
<path d="M15.5 31.2381C16.5277 31.2381 17.5133 30.8267 18.24 30.0944C18.9667 29.3621 19.375 28.3689 19.375 27.3333C19.375 26.2977 18.9667 25.3045 18.24 24.5722C17.5133 23.84 16.5277 23.4286 15.5 23.4286C14.4723 23.4286 13.4867 23.84 12.76 24.5722C12.0333 25.3045 11.625 26.2977 11.625 27.3333C11.625 28.3689 12.0333 29.3621 12.76 30.0944C13.4867 30.8267 14.4723 31.2381 15.5 31.2381ZM27.125 13.6667C28.1527 13.6667 29.1383 14.0781 29.865 14.8103C30.5917 15.5426 31 16.5358 31 17.5714V37.0952C31 38.1308 30.5917 39.124 29.865 39.8563C29.1383 40.5886 28.1527 41 27.125 41H3.875C2.84729 41 1.86166 40.5886 1.13496 39.8563C0.408258 39.124 0 38.1308 0 37.0952V17.5714C0 16.5358 0.408258 15.5426 1.13496 14.8103C1.86166 14.0781 2.84729 13.6667 3.875 13.6667H5.8125V9.7619C5.8125 7.17289 6.83314 4.68991 8.6499 2.8592C10.4667 1.02848 12.9307 0 15.5 0C16.7722 0 18.0319 0.252499 19.2072 0.743081C20.3826 1.23366 21.4505 1.95272 22.3501 2.8592C23.2497 3.76567 23.9632 4.84182 24.4501 6.02619C24.9369 7.21055 25.1875 8.47995 25.1875 9.7619V13.6667H27.125ZM15.5 3.90476C13.9584 3.90476 12.48 4.52185 11.3899 5.62028C10.2999 6.71871 9.6875 8.20849 9.6875 9.7619V13.6667H21.3125V9.7619C21.3125 8.20849 20.7001 6.71871 19.6101 5.62028C18.52 4.52185 17.0416 3.90476 15.5 3.90476Z" fill="#A4A4A4"/>
</svg>
